<?xml version="1.0" standalone="no"?>
<!DOCTYPE svg PUBLIC "-//W3C//DTD SVG 20010904//EN"
 "http://www.w3.org/TR/2001/REC-SVG-20010904/DTD/svg10.dtd">
<svg version="1.0" xmlns="http://www.w3.org/2000/svg"
 width="100.000000pt" height="100.000000pt" viewBox="0 0 100.000000 100.000000"
 preserveAspectRatio="xMidYMid meet">
<metadata>
Created by potrace 1.14, written by Peter Selinger 2001-2017
</metadata>
<g transform="translate(0.000000,100.000000) scale(0.100000,-0.100000)"
fill="#000000" stroke="none">
<path d="M70 495 l0 -235 80 0 80 0 0 77 0 76 21 -24 c11 -13 62 -69 112 -123
51 -54 98 -107 105 -117 7 -11 17 -19 21 -19 4 0 7 135 7 300 l0 300 -73 0
-72 0 -3 -101 -3 -101 -60 101 -60 100 -77 1 -78 0 0 -235z"/>
<path d="M602 716 c-13 -7 -32 -26 -43 -42 -17 -26 -19 -48 -19 -197 l0 -168
26 -24 c26 -24 31 -25 190 -25 163 0 164 0 165 23 1 27 1 99 0 110 -1 4 -50 7
-110 7 -75 0 -112 4 -119 13 -10 12 -14 118 -5 150 4 15 18 17 119 17 84 0
114 3 115 13 1 14 1 118 0 130 -2 13 -294 8 -319 -7z"/>
</g>
</svg>
